<mxfile host="app.diagrams.net" agent="Mozilla/5.0 (Windows NT 10.0; Win64; x64) AppleWebKit/537.36 (KHTML, like Gecko) Chrome/128.0.0.0 YaBrowser/24.10.0.0 Safari/537.36" version="28.2.5">
  <diagram name="Архитектура шардинга" id="snnX2p-vuBFpVEnEmG3A">
    <mxGraphModel dx="1106" dy="616" grid="1" gridSize="10" guides="1" tooltips="1" connect="1" arrows="1" fold="1" page="1" pageScale="1" pageWidth="827" pageHeight="1169" math="0" shadow="0">
      <root>
        <mxCell id="0" />
        <mxCell id="1" parent="0" />
        <mxCell id="WNbXhUolABerveYQK1KE-1" value="ШАРДИРОВАННАЯ СИСТЕМА" style="rounded=1;whiteSpace=wrap;html=1;fillColor=#d4e6f1;strokeColor=#2e86ab;fontSize=16;fontStyle=1;strokeWidth=2;" vertex="1" parent="1">
          <mxGeometry x="250" y="20" width="300" height="50" as="geometry" />
        </mxCell>
        <mxCell id="WNbXhUolABerveYQK1KE-2" value="ПРОКСИ-СЛОЙ (Router)" style="rounded=1;whiteSpace=wrap;html=1;fillColor=#e6f3ff;strokeColor=#3498db;strokeWidth=1;" vertex="1" parent="1">
          <mxGeometry x="90" y="100" width="140" height="60" as="geometry" />
        </mxCell>
        <mxCell id="WNbXhUolABerveYQK1KE-3" value="API Gateway" style="rounded=1;whiteSpace=wrap;html=1;fillColor=#e6f3ff;strokeColor=#3498db;strokeWidth=1;" vertex="1" parent="1">
          <mxGeometry x="330" y="100" width="140" height="60" as="geometry" />
        </mxCell>
        <mxCell id="WNbXhUolABerveYQK1KE-4" value="БАЛАНСИРОВЩИК Нагрузки" style="rounded=1;whiteSpace=wrap;html=1;fillColor=#e6f3ff;strokeColor=#3498db;strokeWidth=1;" vertex="1" parent="1">
          <mxGeometry x="580" y="100" width="140" height="60" as="geometry" />
        </mxCell>
        <mxCell id="WNbXhUolABerveYQK1KE-5" value="ШАРД-КОНТРОЛЛЕР (Shard Controller)" style="rounded=1;whiteSpace=wrap;html=1;fillColor=#d5f5e3;strokeColor=#27ae60;strokeWidth=1;" vertex="1" parent="1">
          <mxGeometry x="300" y="190" width="200" height="60" as="geometry" />
        </mxCell>
        <mxCell id="WNbXhUolABerveYQK1KE-6" value="ШАРД 1 USERS" style="rounded=1;whiteSpace=wrap;html=1;fillColor=#e6f3ff;strokeColor=#3498db;strokeWidth=1;" vertex="1" parent="1">
          <mxGeometry x="90" y="280" width="140" height="60" as="geometry" />
        </mxCell>
        <mxCell id="WNbXhUolABerveYQK1KE-7" value="ШАРД 2 BOOKS" style="rounded=1;whiteSpace=wrap;html=1;fillColor=#e6f3ff;strokeColor=#3498db;strokeWidth=1;" vertex="1" parent="1">
          <mxGeometry x="330" y="280" width="140" height="60" as="geometry" />
        </mxCell>
        <mxCell id="WNbXhUolABerveYQK1KE-8" value="ШАРД 3 SHOPS" style="rounded=1;whiteSpace=wrap;html=1;fillColor=#e6f3ff;strokeColor=#3498db;strokeWidth=1;" vertex="1" parent="1">
          <mxGeometry x="570" y="280" width="140" height="60" as="geometry" />
        </mxCell>
        <mxCell id="WNbXhUolABerveYQK1KE-9" value="Реплика Slave 1" style="rounded=1;whiteSpace=wrap;html=1;fillColor=#fdebd0;strokeColor=#e67e22;strokeWidth=1;" vertex="1" parent="1">
          <mxGeometry x="90" y="400" width="140" height="50" as="geometry" />
        </mxCell>
        <mxCell id="WNbXhUolABerveYQK1KE-10" value="Реплика Slave 1" style="rounded=1;whiteSpace=wrap;html=1;fillColor=#fdebd0;strokeColor=#e67e22;strokeWidth=1;" vertex="1" parent="1">
          <mxGeometry x="330" y="400" width="140" height="50" as="geometry" />
        </mxCell>
        <mxCell id="WNbXhUolABerveYQK1KE-11" value="Реплика Slave 1" style="rounded=1;whiteSpace=wrap;html=1;fillColor=#fdebd0;strokeColor=#e67e22;strokeWidth=1;" vertex="1" parent="1">
          <mxGeometry x="570" y="400" width="140" height="50" as="geometry" />
        </mxCell>
        <mxCell id="WNbXhUolABerveYQK1KE-12" style="edgeStyle=orthogonalEdgeStyle;rounded=0;orthogonalLoop=1;jettySize=auto;html=1;endArrow=classic;endFill=1;strokeWidth=1;" edge="1" parent="1" source="WNbXhUolABerveYQK1KE-1" target="WNbXhUolABerveYQK1KE-2">
          <mxGeometry relative="1" as="geometry" />
        </mxCell>
        <mxCell id="WNbXhUolABerveYQK1KE-13" style="edgeStyle=orthogonalEdgeStyle;rounded=0;orthogonalLoop=1;jettySize=auto;html=1;endArrow=classic;endFill=1;strokeWidth=1;" edge="1" parent="1" source="WNbXhUolABerveYQK1KE-1" target="WNbXhUolABerveYQK1KE-3">
          <mxGeometry relative="1" as="geometry" />
        </mxCell>
        <mxCell id="WNbXhUolABerveYQK1KE-14" style="edgeStyle=orthogonalEdgeStyle;rounded=0;orthogonalLoop=1;jettySize=auto;html=1;endArrow=classic;endFill=1;strokeWidth=1;" edge="1" parent="1" source="WNbXhUolABerveYQK1KE-1" target="WNbXhUolABerveYQK1KE-4">
          <mxGeometry relative="1" as="geometry" />
        </mxCell>
        <mxCell id="WNbXhUolABerveYQK1KE-15" style="edgeStyle=orthogonalEdgeStyle;rounded=0;orthogonalLoop=1;jettySize=auto;html=1;endArrow=classic;endFill=1;strokeWidth=1;" edge="1" parent="1" source="WNbXhUolABerveYQK1KE-2" target="WNbXhUolABerveYQK1KE-5">
          <mxGeometry relative="1" as="geometry">
            <Array as="points">
              <mxPoint x="120" y="200" />
            </Array>
          </mxGeometry>
        </mxCell>
        <mxCell id="WNbXhUolABerveYQK1KE-16" style="edgeStyle=orthogonalEdgeStyle;rounded=0;orthogonalLoop=1;jettySize=auto;html=1;endArrow=classic;endFill=1;strokeWidth=1;" edge="1" parent="1" source="WNbXhUolABerveYQK1KE-3" target="WNbXhUolABerveYQK1KE-5">
          <mxGeometry relative="1" as="geometry" />
        </mxCell>
        <mxCell id="WNbXhUolABerveYQK1KE-17" style="edgeStyle=orthogonalEdgeStyle;rounded=0;orthogonalLoop=1;jettySize=auto;html=1;endArrow=classic;endFill=1;strokeWidth=1;" edge="1" parent="1" source="WNbXhUolABerveYQK1KE-4" target="WNbXhUolABerveYQK1KE-5">
          <mxGeometry relative="1" as="geometry">
            <Array as="points">
              <mxPoint x="480" y="200" />
              <mxPoint x="300" y="200" />
            </Array>
          </mxGeometry>
        </mxCell>
        <mxCell id="WNbXhUolABerveYQK1KE-18" style="edgeStyle=orthogonalEdgeStyle;rounded=0;orthogonalLoop=1;jettySize=auto;html=1;endArrow=classic;endFill=1;strokeWidth=1;" edge="1" parent="1" source="WNbXhUolABerveYQK1KE-5" target="WNbXhUolABerveYQK1KE-6">
          <mxGeometry relative="1" as="geometry" />
        </mxCell>
        <mxCell id="WNbXhUolABerveYQK1KE-19" style="edgeStyle=orthogonalEdgeStyle;rounded=0;orthogonalLoop=1;jettySize=auto;html=1;endArrow=classic;endFill=1;strokeWidth=1;" edge="1" parent="1" source="WNbXhUolABerveYQK1KE-5" target="WNbXhUolABerveYQK1KE-7">
          <mxGeometry relative="1" as="geometry" />
        </mxCell>
        <mxCell id="WNbXhUolABerveYQK1KE-20" style="edgeStyle=orthogonalEdgeStyle;rounded=0;orthogonalLoop=1;jettySize=auto;html=1;endArrow=classic;endFill=1;strokeWidth=1;" edge="1" parent="1" source="WNbXhUolABerveYQK1KE-5" target="WNbXhUolABerveYQK1KE-8">
          <mxGeometry relative="1" as="geometry" />
        </mxCell>
        <mxCell id="WNbXhUolABerveYQK1KE-21" style="edgeStyle=orthogonalEdgeStyle;rounded=0;orthogonalLoop=1;jettySize=auto;html=1;endArrow=classic;endFill=1;strokeWidth=1;" edge="1" parent="1" source="WNbXhUolABerveYQK1KE-6" target="WNbXhUolABerveYQK1KE-9">
          <mxGeometry relative="1" as="geometry" />
        </mxCell>
        <mxCell id="WNbXhUolABerveYQK1KE-22" style="edgeStyle=orthogonalEdgeStyle;rounded=0;orthogonalLoop=1;jettySize=auto;html=1;endArrow=classic;endFill=1;strokeWidth=1;" edge="1" parent="1" source="WNbXhUolABerveYQK1KE-7" target="WNbXhUolABerveYQK1KE-10">
          <mxGeometry relative="1" as="geometry" />
        </mxCell>
        <mxCell id="WNbXhUolABerveYQK1KE-23" style="edgeStyle=orthogonalEdgeStyle;rounded=0;orthogonalLoop=1;jettySize=auto;html=1;endArrow=classic;endFill=1;strokeWidth=1;" edge="1" parent="1" source="WNbXhUolABerveYQK1KE-8" target="WNbXhUolABerveYQK1KE-11">
          <mxGeometry relative="1" as="geometry" />
        </mxCell>
        <mxCell id="WNbXhUolABerveYQK1KE-24" value="" style="edgeStyle=orthogonalEdgeStyle;rounded=0;orthogonalLoop=1;jettySize=auto;html=1;" edge="1" parent="1" source="WNbXhUolABerveYQK1KE-25">
          <mxGeometry relative="1" as="geometry">
            <mxPoint x="150" y="150" as="targetPoint" />
            <Array as="points">
              <mxPoint x="270" y="110" />
              <mxPoint x="150" y="110" />
            </Array>
          </mxGeometry>
        </mxCell>
        <mxCell id="WNbXhUolABerveYQK1KE-25" value="Приложение" style="rounded=1;whiteSpace=wrap;html=1;fontSize=12;glass=0;strokeWidth=1;shadow=0;" vertex="1" parent="1">
          <mxGeometry x="90" y="40" width="350" height="40" as="geometry" />
        </mxCell>
        <mxCell id="WNbXhUolABerveYQK1KE-26" style="edgeStyle=orthogonalEdgeStyle;rounded=0;orthogonalLoop=1;jettySize=auto;html=1;exitX=0.5;exitY=1;exitDx=0;exitDy=0;entryX=0.5;entryY=0;entryDx=0;entryDy=0;" edge="1" parent="1" source="WNbXhUolABerveYQK1KE-27" target="WNbXhUolABerveYQK1KE-29">
          <mxGeometry relative="1" as="geometry" />
        </mxCell>
        <mxCell id="WNbXhUolABerveYQK1KE-27" value="&lt;div&gt;Сервер 1&lt;/div&gt;&lt;div&gt;&lt;span style=&quot;font-size:11.0pt;line-height:107%;&lt;br/&gt;font-family:&amp;quot;Times New Roman&amp;quot;,serif;mso-fareast-font-family:&amp;quot;Times New Roman&amp;quot;;&lt;br/&gt;mso-ansi-language:RU;mso-fareast-language:RU;mso-bidi-language:AR-SA&quot;&gt;(users,&lt;br/&gt;shops)&lt;/span&gt;&lt;br&gt;&lt;/div&gt;" style="rounded=1;whiteSpace=wrap;html=1;fontSize=12;glass=0;strokeWidth=1;shadow=0;" vertex="1" parent="1">
          <mxGeometry x="90" y="160" width="120" height="60" as="geometry" />
        </mxCell>
        <mxCell id="WNbXhUolABerveYQK1KE-28" value="&lt;span style=&quot;font-size:11.0pt;line-height:107%;&lt;br/&gt;font-family:&amp;quot;Times New Roman&amp;quot;,serif;mso-fareast-font-family:&amp;quot;Times New Roman&amp;quot;;&lt;br/&gt;mso-ansi-language:RU;mso-fareast-language:RU;mso-bidi-language:AR-SA&quot;&gt;Шард&lt;br&gt;users_2&lt;/span&gt;&lt;div&gt;&lt;span style=&quot;font-size:11.0pt;line-height:107%;&lt;br/&gt;font-family:&amp;quot;Times New Roman&amp;quot;,serif;mso-fareast-font-family:&amp;quot;Times New Roman&amp;quot;;&lt;br/&gt;mso-ansi-language:RU;mso-fareast-language:RU;mso-bidi-language:AR-SA&quot;&gt;&lt;span style=&quot;font-size: 11pt; line-height: 107%;&quot;&gt;(id&lt;br&gt;1000001-...)&lt;/span&gt;&lt;br&gt;&lt;/span&gt;&lt;/div&gt;" style="rounded=1;whiteSpace=wrap;html=1;fontSize=12;glass=0;strokeWidth=1;shadow=0;" vertex="1" parent="1">
          <mxGeometry x="90" y="330" width="120" height="70" as="geometry" />
        </mxCell>
        <mxCell id="WNbXhUolABerveYQK1KE-29" value="&lt;span style=&quot;font-size:11.0pt;line-height:107%;&lt;br/&gt;font-family:&amp;quot;Times New Roman&amp;quot;,serif;mso-fareast-font-family:&amp;quot;Times New Roman&amp;quot;;&lt;br/&gt;mso-ansi-language:RU;mso-fareast-language:RU;mso-bidi-language:AR-SA&quot;&gt;Шард users_1&lt;/span&gt;&lt;div&gt;&lt;span style=&quot;font-size:11.0pt;line-height:107%;&lt;br/&gt;font-family:&amp;quot;Times New Roman&amp;quot;,serif;mso-fareast-font-family:&amp;quot;Times New Roman&amp;quot;;&lt;br/&gt;mso-ansi-language:RU;mso-fareast-language:RU;mso-bidi-language:AR-SA&quot;&gt;&lt;span style=&quot;font-size: 11pt; line-height: 107%;&quot;&gt;(id&lt;br/&gt;1-1000000)&lt;/span&gt;&lt;br&gt;&lt;/span&gt;&lt;/div&gt;" style="rounded=1;whiteSpace=wrap;html=1;fontSize=12;glass=0;strokeWidth=1;shadow=0;" vertex="1" parent="1">
          <mxGeometry x="90" y="240" width="120" height="60" as="geometry" />
        </mxCell>
        <mxCell id="WNbXhUolABerveYQK1KE-30" value="" style="edgeStyle=orthogonalEdgeStyle;rounded=0;orthogonalLoop=1;jettySize=auto;html=1;" edge="1" parent="1" source="WNbXhUolABerveYQK1KE-31" target="WNbXhUolABerveYQK1KE-32">
          <mxGeometry relative="1" as="geometry" />
        </mxCell>
        <mxCell id="WNbXhUolABerveYQK1KE-31" value="&lt;div&gt;&lt;span style=&quot;font-size:11.0pt;line-height:107%;&lt;br/&gt;font-family:&amp;quot;Times New Roman&amp;quot;,serif;mso-fareast-font-family:&amp;quot;Times New Roman&amp;quot;;&lt;br/&gt;mso-ansi-language:RU;mso-fareast-language:RU;mso-bidi-language:AR-SA&quot;&gt;&lt;br&gt;&lt;/span&gt;&lt;/div&gt;&lt;span style=&quot;font-size:11.0pt;line-height:107%;&lt;br/&gt;font-family:&amp;quot;Times New Roman&amp;quot;,serif;mso-fareast-font-family:&amp;quot;Times New Roman&amp;quot;;&lt;br/&gt;mso-ansi-language:RU;mso-fareast-language:RU;mso-bidi-language:AR-SA&quot;&gt;&lt;div&gt;&lt;span style=&quot;font-size:11.0pt;line-height:107%;&lt;br/&gt;font-family:&amp;quot;Times New Roman&amp;quot;,serif;mso-fareast-font-family:&amp;quot;Times New Roman&amp;quot;;&lt;br/&gt;mso-ansi-language:RU;mso-fareast-language:RU;mso-bidi-language:AR-SA&quot;&gt;&lt;br&gt;&lt;/span&gt;&lt;/div&gt;Шард&lt;br&gt;shops_1&lt;/span&gt;&lt;div&gt;&lt;span style=&quot;font-size:11.0pt;line-height:107%;&lt;br/&gt;font-family:&amp;quot;Times New Roman&amp;quot;,serif;mso-fareast-font-family:&amp;quot;Times New Roman&amp;quot;;&lt;br/&gt;mso-ansi-language:RU;mso-fareast-language:RU;mso-bidi-language:AR-SA&quot;&gt;&lt;span style=&quot;font-size:11.0pt;line-height:107%;&lt;br/&gt;font-family:&amp;quot;Times New Roman&amp;quot;,serif;mso-fareast-font-family:&amp;quot;Times New Roman&amp;quot;;&lt;br/&gt;mso-ansi-language:RU;mso-fareast-language:RU;mso-bidi-language:AR-SA&quot;&gt;&amp;nbsp;(Европа)&amp;nbsp;&amp;nbsp;&amp;nbsp;&amp;nbsp;&lt;br&gt;&amp;nbsp; &amp;nbsp;&lt;/span&gt;&lt;br&gt;&lt;/span&gt;&lt;/div&gt;&lt;div&gt;&lt;br&gt;&lt;/div&gt;" style="rounded=1;whiteSpace=wrap;html=1;fontSize=12;glass=0;strokeWidth=1;shadow=0;" vertex="1" parent="1">
          <mxGeometry x="90" y="440" width="120" height="60" as="geometry" />
        </mxCell>
        <mxCell id="WNbXhUolABerveYQK1KE-32" value="&lt;span style=&quot;font-size:11.0pt;line-height:107%;&lt;br/&gt;font-family:&amp;quot;Times New Roman&amp;quot;,serif;mso-fareast-font-family:&amp;quot;Times New Roman&amp;quot;;&lt;br/&gt;mso-ansi-language:RU;mso-fareast-language:RU;mso-bidi-language:AR-SA&quot;&gt;Шард&lt;br/&gt;shops_2&lt;/span&gt;&lt;div&gt;&lt;span style=&quot;font-size:11.0pt;line-height:107%;&lt;br/&gt;font-family:&amp;quot;Times New Roman&amp;quot;,serif;mso-fareast-font-family:&amp;quot;Times New Roman&amp;quot;;&lt;br/&gt;mso-ansi-language:RU;mso-fareast-language:RU;mso-bidi-language:AR-SA&quot;&gt;(Азия)&lt;/span&gt;&lt;/div&gt;" style="rounded=1;whiteSpace=wrap;html=1;fontSize=12;glass=0;strokeWidth=1;shadow=0;" vertex="1" parent="1">
          <mxGeometry x="90" y="540" width="120" height="65" as="geometry" />
        </mxCell>
        <mxCell id="WNbXhUolABerveYQK1KE-33" value="" style="rounded=1;whiteSpace=wrap;html=1;fontSize=12;glass=0;strokeWidth=1;shadow=0;" vertex="1" parent="1">
          <mxGeometry x="330" y="160" width="120" height="60" as="geometry" />
        </mxCell>
        <mxCell id="WNbXhUolABerveYQK1KE-34" value="&lt;span style=&quot;font-size:11.0pt;line-height:107%;&lt;br/&gt;font-family:&amp;quot;Times New Roman&amp;quot;,serif;mso-fareast-font-family:&amp;quot;Times New Roman&amp;quot;;&lt;br/&gt;mso-ansi-language:RU;mso-fareast-language:RU;mso-bidi-language:AR-SA&quot;&gt;Шард&lt;br/&gt;books_1&lt;/span&gt;&lt;div&gt;&lt;span style=&quot;font-size:11.0pt;line-height:107%;&lt;br/&gt;font-family:&amp;quot;Times New Roman&amp;quot;,serif;mso-fareast-font-family:&amp;quot;Times New Roman&amp;quot;;&lt;br/&gt;mso-ansi-language:RU;mso-fareast-language:RU;mso-bidi-language:AR-SA&quot;&gt;(А-М)&lt;/span&gt;&lt;/div&gt;" style="rounded=1;whiteSpace=wrap;html=1;fontSize=12;glass=0;strokeWidth=1;shadow=0;" vertex="1" parent="1">
          <mxGeometry x="330" y="250" width="120" height="60" as="geometry" />
        </mxCell>
        <mxCell id="WNbXhUolABerveYQK1KE-35" value="Сервер 2&lt;div&gt;(books)&lt;/div&gt;" style="text;html=1;align=center;verticalAlign=middle;resizable=0;points=[];autosize=1;strokeColor=none;fillColor=none;" vertex="1" parent="1">
          <mxGeometry x="350" y="170" width="80" height="40" as="geometry" />
        </mxCell>
        <mxCell id="WNbXhUolABerveYQK1KE-36" value="&lt;span style=&quot;font-size:11.0pt;line-height:107%;&lt;br/&gt;font-family:&amp;quot;Times New Roman&amp;quot;,serif;mso-fareast-font-family:&amp;quot;Times New Roman&amp;quot;;&lt;br/&gt;mso-ansi-language:RU;mso-fareast-language:RU;mso-bidi-language:AR-SA&quot;&gt;Шард&lt;br&gt;books_2&lt;/span&gt;&lt;div&gt;&lt;span style=&quot;font-size:11.0pt;line-height:107%;&lt;br/&gt;font-family:&amp;quot;Times New Roman&amp;quot;,serif;mso-fareast-font-family:&amp;quot;Times New Roman&amp;quot;;&lt;br/&gt;mso-ansi-language:RU;mso-fareast-language:RU;mso-bidi-language:AR-SA&quot;&gt;(N-Z)&lt;/span&gt;&lt;/div&gt;" style="rounded=1;whiteSpace=wrap;html=1;fontSize=12;glass=0;strokeWidth=1;shadow=0;" vertex="1" parent="1">
          <mxGeometry x="330" y="350" width="120" height="60" as="geometry" />
        </mxCell>
        <mxCell id="WNbXhUolABerveYQK1KE-37" value="" style="edgeStyle=orthogonalEdgeStyle;rounded=0;orthogonalLoop=1;jettySize=auto;html=1;entryX=0.433;entryY=-0.017;entryDx=0;entryDy=0;entryPerimeter=0;" edge="1" parent="1" target="WNbXhUolABerveYQK1KE-33">
          <mxGeometry relative="1" as="geometry">
            <mxPoint x="270" y="110" as="sourcePoint" />
            <mxPoint x="290" y="170" as="targetPoint" />
            <Array as="points">
              <mxPoint x="382" y="110" />
            </Array>
          </mxGeometry>
        </mxCell>
        <mxCell id="WNbXhUolABerveYQK1KE-38" style="edgeStyle=orthogonalEdgeStyle;rounded=0;orthogonalLoop=1;jettySize=auto;html=1;exitX=0.5;exitY=1;exitDx=0;exitDy=0;entryX=0.5;entryY=0;entryDx=0;entryDy=0;" edge="1" parent="1" source="WNbXhUolABerveYQK1KE-33">
          <mxGeometry relative="1" as="geometry">
            <mxPoint x="389.5" y="230" as="sourcePoint" />
            <mxPoint x="389.5" y="250" as="targetPoint" />
          </mxGeometry>
        </mxCell>
        <mxCell id="WNbXhUolABerveYQK1KE-39" value="" style="endArrow=none;html=1;rounded=0;entryX=0.5;entryY=1;entryDx=0;entryDy=0;" edge="1" parent="1" target="WNbXhUolABerveYQK1KE-29">
          <mxGeometry width="50" height="50" relative="1" as="geometry">
            <mxPoint x="150" y="330" as="sourcePoint" />
            <mxPoint x="190" y="310" as="targetPoint" />
            <Array as="points" />
          </mxGeometry>
        </mxCell>
        <mxCell id="WNbXhUolABerveYQK1KE-40" value="" style="endArrow=none;html=1;rounded=0;entryX=0.5;entryY=1;entryDx=0;entryDy=0;" edge="1" parent="1" target="WNbXhUolABerveYQK1KE-28">
          <mxGeometry width="50" height="50" relative="1" as="geometry">
            <mxPoint x="150" y="440" as="sourcePoint" />
            <mxPoint x="190" y="410" as="targetPoint" />
            <Array as="points" />
          </mxGeometry>
        </mxCell>
        <mxCell id="WNbXhUolABerveYQK1KE-41" value="" style="endArrow=none;html=1;rounded=0;entryX=0.5;entryY=1;entryDx=0;entryDy=0;" edge="1" parent="1" target="WNbXhUolABerveYQK1KE-31">
          <mxGeometry width="50" height="50" relative="1" as="geometry">
            <mxPoint x="150" y="540" as="sourcePoint" />
            <mxPoint x="190" y="510" as="targetPoint" />
          </mxGeometry>
        </mxCell>
        <mxCell id="WNbXhUolABerveYQK1KE-42" value="" style="endArrow=none;html=1;rounded=0;entryX=0.5;entryY=1;entryDx=0;entryDy=0;" edge="1" parent="1" target="WNbXhUolABerveYQK1KE-34">
          <mxGeometry width="50" height="50" relative="1" as="geometry">
            <mxPoint x="390" y="350" as="sourcePoint" />
            <mxPoint x="440" y="330" as="targetPoint" />
          </mxGeometry>
        </mxCell>
      </root>
    </mxGraphModel>
  </diagram>
</mxfile>
